<?xml version="1.0" ?><svg xmlns="http://www.w3.org/2000/svg" xmlns:xlink="http://www.w3.org/1999/xlink" version="1.1" viewBox="0 0 512 512" style="enable-background:new 0 0 512 512;" xml:space="preserve"><g id="_x32_6_Shopping_Basket_x2C__Discount_x2C__Purchase_x2C__Commerce_and_Shopping_x2C__Store"><g><path style="fill:#BC6D59;" d="M481,120.975c-5.573,0-321.103,0-330,0l-9.55,161.91l6.03,214.87c4.06,2.06,8.66,3.22,13.52,3.22    h310c16.57,0,30-13.43,30-30L481,120.975z"/><circle style="fill:#FF6378;" cx="121" cy="390.975" r="109.998"/><circle style="fill:#ECE6F2;" cx="421" cy="180.975" r="20"/><circle style="fill:#ECE6F2;" cx="221" cy="180.975" r="20"/><g><path d="M510.984,470.405l-20-350c-0.303-5.293-4.683-9.43-9.984-9.43h-50c0-60.654-49.346-110-110-110s-110,49.346-110,110h-60     c-5.294,0-9.671,4.126-9.982,9.411l-8.913,151.104C61.542,265.027,1,320.34,1,390.975c0,76.301,70.336,133.511,145.551,117.282     c4.586,1.775,9.509,2.718,14.449,2.718h310c22.056,0,40-17.944,40-40C511,470.784,510.995,470.594,510.984,470.405z M321,20.975     c49.626,0,90,40.374,90,90H231C231,61.349,271.374,20.975,321,20.975z M421,170.975c5.514,0,10,4.486,10,10s-4.486,10-10,10     s-10-4.486-10-10S415.486,170.975,421,170.975z M221,170.975c5.514,0,10,4.486,10,10s-4.486,10-10,10s-10-4.486-10-10     S215.486,170.975,221,170.975z M21,390.975c0-62.505,56.746-109.927,118.667-98.257c45.009,8.14,81.333,48.393,81.333,98.257     c0,26.711-10.402,51.823-29.289,70.71c0,0,0,0,0,0c-18.951,18.952-44.116,29.29-70.71,29.29     C65.725,490.975,21,446.241,21,390.975z M471,490.975H187.396c32.187-21.467,53.604-57.957,53.604-100     c0-55.63-37.762-102.348-89.068-115.975l8.495-144.025H211v21.72c-11.639,4.128-20,15.243-20,28.28c0,16.542,13.458,30,30,30     s30-13.458,30-30c0-13.036-8.361-24.152-20-28.28v-21.72h180v21.72c-11.639,4.128-20,15.243-20,28.28c0,16.542,13.458,30,30,30     s30-13.458,30-30c0-13.036-8.361-24.152-20-28.28v-21.72h40.555l19.443,340.257C490.861,482.143,481.942,490.975,471,490.975z"/><path d="M177.569,334.407c-3.905-3.905-10.237-3.905-14.143,0l-98.995,98.995c-3.905,3.905-3.905,10.237,0,14.143     c3.905,3.905,10.238,3.904,14.143,0l98.995-98.995C181.474,344.644,181.474,338.312,177.569,334.407z"/><ellipse transform="matrix(0.9732 -0.2298 0.2298 0.9732 -80.8574 30.9889)" cx="92.647" cy="362.72" rx="9.995" ry="9.995"/><ellipse transform="matrix(0.9732 -0.2298 0.2298 0.9732 -92.3376 45.5144)" cx="149.283" cy="419.28" rx="9.995" ry="9.995"/></g></g></g><g id="Layer_1"/></svg>